<svg width="24" height="24" viewBox="0 0 24 24" fill="none" xmlns="http://www.w3.org/2000/svg">
<path d="M16.8503 0H7.14973C3.20735 0 0 3.20735 0 7.14973V16.8503C0 20.7926 3.20735 24 7.14973 24H16.8503C20.7926 24 24 20.7926 24 16.8503V7.14973C24 3.20735 20.7926 0 16.8503 0ZM21.5856 16.8503C21.5856 19.4655 19.4655 21.5856 16.8503 21.5856H7.14973C4.5345 21.5856 2.4144 19.4655 2.4144 16.8503V7.14973C2.4144 4.53446 4.5345 2.4144 7.14973 2.4144H16.8503C19.4655 2.4144 21.5856 4.53446 21.5856 7.14973V16.8503Z" fill="url(#paint0_linear_6496_4)"/>
<path d="M11.9997 5.79272C8.57705 5.79272 5.79248 8.57729 5.79248 11.9999C5.79248 15.4226 8.57705 18.2072 11.9997 18.2072C15.4224 18.2072 18.207 15.4226 18.207 11.9999C18.207 8.57725 15.4224 5.79272 11.9997 5.79272ZM11.9997 15.7928C9.90498 15.7928 8.20688 14.0947 8.20688 12C8.20688 9.90523 9.90503 8.20712 11.9997 8.20712C14.0945 8.20712 15.7926 9.90523 15.7926 12C15.7926 14.0947 14.0944 15.7928 11.9997 15.7928Z" fill="url(#paint1_linear_6496_4)"/>
<path d="M18.2191 7.32682C19.0405 7.32682 19.7065 6.6609 19.7065 5.83944C19.7065 5.01798 19.0405 4.35205 18.2191 4.35205C17.3976 4.35205 16.7317 5.01798 16.7317 5.83944C16.7317 6.6609 17.3976 7.32682 18.2191 7.32682Z" fill="url(#paint2_linear_6496_4)"/>
<defs>
<linearGradient id="paint0_linear_6496_4" x1="12" y1="35.0637" x2="12" y2="-10.8383" gradientUnits="userSpaceOnUse">
<stop stop-color="#E09B3D"/>
<stop offset="0.3" stop-color="#C74C4D"/>
<stop offset="0.6" stop-color="#C21975"/>
<stop offset="1" stop-color="#7024C4"/>
</linearGradient>
<linearGradient id="paint1_linear_6496_4" x1="11.9997" y1="23.9301" x2="11.9997" y2="0.186392" gradientUnits="userSpaceOnUse">
<stop stop-color="#E09B3D"/>
<stop offset="0.3" stop-color="#C74C4D"/>
<stop offset="0.6" stop-color="#C21975"/>
<stop offset="1" stop-color="#7024C4"/>
</linearGradient>
<linearGradient id="paint2_linear_6496_4" x1="18.2191" y1="23.9302" x2="18.2191" y2="0.186501" gradientUnits="userSpaceOnUse">
<stop stop-color="#E09B3D"/>
<stop offset="0.3" stop-color="#C74C4D"/>
<stop offset="0.6" stop-color="#C21975"/>
<stop offset="1" stop-color="#7024C4"/>
</linearGradient>
</defs>
</svg>
